<svg width="42" height="42" viewBox="0 0 42 42" fill="none" xmlns="http://www.w3.org/2000/svg">
<g clip-path="url(#clip0_1_419)">
<path d="M41.0422 22.0103C41.0417 22.0107 41.0413 22.0113 41.0407 22.0118L32.6661 30.346C32.0387 30.9703 31.0239 30.968 30.3994 30.3406C29.775 29.7132 29.7774 28.6984 30.4048 28.074L36.0275 22.4785H2.08497C1.19978 22.4785 0.482239 21.761 0.482239 20.8758C0.482239 19.9906 1.19978 19.273 2.08497 19.273H36.0274L30.4049 13.6776C29.7775 13.0532 29.7751 12.0384 30.3995 11.411C31.024 10.7834 32.0389 10.7813 32.6662 11.4055L41.0408 19.7398C41.0413 19.7402 41.0417 19.7408 41.0422 19.7413C41.6699 20.3678 41.6679 21.3858 41.0422 22.0103Z" fill="#3E3E3F"/>
</g>
<defs>
<clipPath id="clip0_1_419">
<rect width="41.03" height="41.03" fill="white" transform="matrix(1 0 0 -1 0.482239 41.3908)"/>
</clipPath>
</defs>
</svg>
