<svg width="58" height="81" viewBox="0 0 58 81" fill="none" xmlns="http://www.w3.org/2000/svg">
<path fill-rule="evenodd" clip-rule="evenodd" d="M8.61824 39.8403L15.2368 37.8546L15.2209 34.93L8.57068 31.0665L8.61824 39.8403Z" fill="#FFE267" stroke="#A5E5F4" stroke-miterlimit="10" stroke-linecap="round" stroke-linejoin="round"/>
<path fill-rule="evenodd" clip-rule="evenodd" d="M19.1552 5.85937L26.5867 10.1081L42.7444 5.73149C46.0544 4.93371 49.7595 5.10858 52.6954 7.2372C52.6954 7.2372 43.4893 -0.706153 35.5079 1.48165L19.1552 5.85937Z" fill="#FFE267" stroke="#A5E5F4" stroke-miterlimit="10" stroke-linecap="round" stroke-linejoin="round"/>
<path fill-rule="evenodd" clip-rule="evenodd" d="M19.2921 66.881L15.3804 64.5627L19.4691 63.5658L19.4638 62.591C19.4564 61.2264 19.2541 59.8627 19.0517 58.4991C19.0517 58.4991 19.0517 58.4991 19.0507 58.3042C19.0486 57.9143 18.8515 57.5254 18.8494 57.1355C10.673 59.3244 9.50543 59.7206 1.32908 61.9095L15.4089 69.8264C18.5398 71.954 19.1151 70.1963 19.2921 66.881Z" fill="#FFE267" stroke="#A5E5F4" stroke-miterlimit="10" stroke-linecap="round" stroke-linejoin="round"/>
<path fill-rule="evenodd" clip-rule="evenodd" d="M42.7437 5.73177L26.3909 10.1095L26.4163 14.7883L26.56 41.3018L33.1789 39.5113L33.0584 17.2868L42.5973 14.7006C48.8263 12.9122 50.5925 15.0472 50.6242 20.8957L50.7626 46.4344C50.7964 52.6729 45.9395 55.8186 43.0206 56.8092L33.2867 59.3964L33.2878 59.5913L33.3332 67.9743L44.2357 65.1858C52.0222 62.999 57.2457 55.5623 57.2066 48.3491C57.1495 37.8217 57.0925 27.2943 57.0354 16.7669C57.1891 9.1627 50.919 3.34796 42.7437 5.73177Z" fill="#FFE267" stroke="#A5E5F4" stroke-miterlimit="10" stroke-linecap="round" stroke-linejoin="round"/>
<path fill-rule="evenodd" clip-rule="evenodd" d="M50.7622 46.6291L50.6227 20.8955C50.592 15.2419 48.8269 13.3019 43.1807 14.6972L43.335 43.1601C43.1707 48.8148 41.04 51.3608 35.1998 52.9521C34.2261 53.1524 33.4485 53.5465 32.4747 53.7467C33.0691 55.4981 33.2746 57.4466 33.2873 59.786L43.0212 57.1988C47.3017 55.6159 50.404 52.4798 50.7675 47.6039C50.7643 47.019 50.7632 46.8241 50.7622 46.6291Z" fill="#FFE267" stroke="#A5E5F4" stroke-miterlimit="10" stroke-linecap="round" stroke-linejoin="round"/>
<path fill-rule="evenodd" clip-rule="evenodd" d="M19.4658 63.3706L15.3782 64.5625L19.4848 66.8797C19.4796 65.9049 19.4743 64.9302 19.469 63.9554L19.4658 63.3706Z" fill="#FFE267" stroke="#A5E5F4" stroke-miterlimit="10" stroke-linecap="round" stroke-linejoin="round"/>
<path fill-rule="evenodd" clip-rule="evenodd" d="M33.3467 70.1184C33.3446 69.7285 33.3425 69.3386 33.3404 68.9487L33.3383 68.5588L33.2918 59.9809C33.0334 48.2848 25.406 43.8421 25.406 43.8421L15.2368 38.0485L8.61791 39.839L18.7871 45.6326C26.4124 49.6854 26.6655 60.4067 26.6729 61.7714L26.674 61.9663L26.7205 70.5442C26.7215 70.7392 26.7226 70.9341 26.7236 71.1291C26.535 72.2998 25.7859 77.9577 20.7287 80.1296L26.9556 77.9513C27.9282 77.5561 32.7872 74.8004 33.3467 70.1184Z" fill="#FFE267" stroke="#A5E5F4" stroke-miterlimit="10" stroke-linecap="round" stroke-linejoin="round"/>
<path fill-rule="evenodd" clip-rule="evenodd" d="M19.2467 22.6252L7.70856 16.0592L1.08971 17.8497L19.2773 28.2788L19.2467 22.6252Z" fill="#FFE267" stroke="#A5E5F4" stroke-miterlimit="10" stroke-linecap="round" stroke-linejoin="round"/>
<path fill-rule="evenodd" clip-rule="evenodd" d="M1.32989 62.1048L15.4098 70.0217C19.5164 72.339 19.3014 68.636 19.4699 63.7611L19.4636 62.5914C19.2496 59.0833 19.2242 54.4045 15.5096 52.475L1.23371 44.3642C1.18616 35.5914 1.13754 26.6236 1.08998 17.8507L19.2776 28.2799L19.156 5.86039L26.5875 10.1092L26.7566 41.3015L8.57002 31.0673L8.61758 39.8401L18.7868 45.6337C25.4352 49.3019 26.644 56.5088 26.6768 62.5523L26.7191 70.3504C26.7444 75.0292 22.1079 82.8526 15.8504 79.3773L1.37851 71.0726L1.33412 62.8846L1.32989 62.1048Z" fill="#FFE267" stroke="#A5E5F4" stroke-miterlimit="10" stroke-linecap="round" stroke-linejoin="round"/>
</svg>
