<svg width="150" height="150" viewBox="0 0 150 150" fill="none" xmlns="http://www.w3.org/2000/svg">
<path d="M0.15979 145.282H4.19222V149.314H0.15979V145.282Z" fill="url(#paint0_linear_1_405)"/>
<path d="M0.15979 121.087H4.19222V125.119H0.15979V121.087Z" fill="url(#paint1_linear_1_405)"/>
<path d="M0.15979 96.8924H4.19222V100.925H0.15979V96.8924Z" fill="url(#paint2_linear_1_405)"/>
<path d="M0.15979 72.6978H4.19222V76.7302H0.15979V72.6978Z" fill="url(#paint3_linear_1_405)"/>
<path d="M0.15979 48.5032H4.19222V52.5356H0.15979V48.5032Z" fill="url(#paint4_linear_1_405)"/>
<path d="M0.15979 24.3086H4.19222V28.341H0.15979V24.3086Z" fill="url(#paint5_linear_1_405)"/>
<path d="M0.15979 0.114006H4.19222V4.14644H0.15979V0.114006Z" fill="url(#paint6_linear_1_405)"/>
<path d="M24.3544 145.282H28.3868V149.314H24.3544V145.282Z" fill="url(#paint7_linear_1_405)"/>
<path d="M24.3544 121.087H28.3868V125.119H24.3544V121.087Z" fill="url(#paint8_linear_1_405)"/>
<path d="M24.3544 96.8924H28.3868V100.925H24.3544V96.8924Z" fill="url(#paint9_linear_1_405)"/>
<path d="M24.3544 72.6978H28.3868V76.7302H24.3544V72.6978Z" fill="url(#paint10_linear_1_405)"/>
<path d="M24.3544 48.5032H28.3868V52.5356H24.3544V48.5032Z" fill="url(#paint11_linear_1_405)"/>
<path d="M24.3544 24.3086H28.3868V28.341H24.3544V24.3086Z" fill="url(#paint12_linear_1_405)"/>
<path d="M24.3544 0.114006H28.3868V4.14644H24.3544V0.114006Z" fill="url(#paint13_linear_1_405)"/>
<path d="M48.549 145.282H52.5814V149.314H48.549V145.282Z" fill="url(#paint14_linear_1_405)"/>
<path d="M48.549 121.087H52.5814V125.119H48.549V121.087Z" fill="url(#paint15_linear_1_405)"/>
<path d="M48.549 96.8924H52.5814V100.925H48.549V96.8924Z" fill="url(#paint16_linear_1_405)"/>
<path d="M48.549 72.6978H52.5814V76.7302H48.549V72.6978Z" fill="url(#paint17_linear_1_405)"/>
<path d="M48.549 48.5032H52.5814V52.5356H48.549V48.5032Z" fill="url(#paint18_linear_1_405)"/>
<path d="M48.549 24.3086H52.5814V28.341H48.549V24.3086Z" fill="url(#paint19_linear_1_405)"/>
<path d="M48.549 0.114006H52.5814V4.14644H48.549V0.114006Z" fill="url(#paint20_linear_1_405)"/>
<path d="M72.7436 145.282H76.776V149.314H72.7436V145.282Z" fill="url(#paint21_linear_1_405)"/>
<path d="M72.7436 121.087H76.776V125.119H72.7436V121.087Z" fill="url(#paint22_linear_1_405)"/>
<path d="M72.7436 96.8924H76.776V100.925H72.7436V96.8924Z" fill="url(#paint23_linear_1_405)"/>
<path d="M72.7436 72.6978H76.776V76.7302H72.7436V72.6978Z" fill="url(#paint24_linear_1_405)"/>
<path d="M72.7436 48.5032H76.776V52.5356H72.7436V48.5032Z" fill="url(#paint25_linear_1_405)"/>
<path d="M72.7436 24.3086H76.776V28.341H72.7436V24.3086Z" fill="url(#paint26_linear_1_405)"/>
<path d="M72.7436 0.114006H76.776V4.14644H72.7436V0.114006Z" fill="url(#paint27_linear_1_405)"/>
<path d="M96.9381 145.282H100.971V149.314H96.9381V145.282Z" fill="url(#paint28_linear_1_405)"/>
<path d="M96.9381 121.087H100.971V125.119H96.9381V121.087Z" fill="url(#paint29_linear_1_405)"/>
<path d="M96.9381 96.8924H100.971V100.925H96.9381V96.8924Z" fill="url(#paint30_linear_1_405)"/>
<path d="M96.9381 72.6978H100.971V76.7302H96.9381V72.6978Z" fill="url(#paint31_linear_1_405)"/>
<path d="M96.9381 48.5032H100.971V52.5356H96.9381V48.5032Z" fill="url(#paint32_linear_1_405)"/>
<path d="M96.9381 24.3086H100.971V28.341H96.9381V24.3086Z" fill="url(#paint33_linear_1_405)"/>
<path d="M96.9381 0.114006H100.971V4.14644H96.9381V0.114006Z" fill="url(#paint34_linear_1_405)"/>
<path d="M121.133 145.282H125.165V149.314H121.133V145.282Z" fill="url(#paint35_linear_1_405)"/>
<path d="M121.133 121.087H125.165V125.119H121.133V121.087Z" fill="url(#paint36_linear_1_405)"/>
<path d="M121.133 96.8924H125.165V100.925H121.133V96.8924Z" fill="url(#paint37_linear_1_405)"/>
<path d="M121.133 72.6978H125.165V76.7302H121.133V72.6978Z" fill="url(#paint38_linear_1_405)"/>
<path d="M121.133 48.5032H125.165V52.5356H121.133V48.5032Z" fill="url(#paint39_linear_1_405)"/>
<path d="M121.133 24.3086H125.165V28.341H121.133V24.3086Z" fill="url(#paint40_linear_1_405)"/>
<path d="M121.133 0.114006H125.165V4.14644H121.133V0.114006Z" fill="url(#paint41_linear_1_405)"/>
<path d="M145.327 145.282H149.36V149.314H145.327V145.282Z" fill="url(#paint42_linear_1_405)"/>
<path d="M145.327 121.087H149.36V125.119H145.327V121.087Z" fill="url(#paint43_linear_1_405)"/>
<path d="M145.327 96.8924H149.36V100.925H145.327V96.8924Z" fill="url(#paint44_linear_1_405)"/>
<path d="M145.327 72.6978H149.36V76.7302H145.327V72.6978Z" fill="url(#paint45_linear_1_405)"/>
<path d="M145.327 48.5032H149.36V52.5356H145.327V48.5032Z" fill="url(#paint46_linear_1_405)"/>
<path d="M145.327 24.3086H149.36V28.341H145.327V24.3086Z" fill="url(#paint47_linear_1_405)"/>
<path d="M145.327 0.114006H149.36V4.14644H145.327V0.114006Z" fill="url(#paint48_linear_1_405)"/>
<defs>
<linearGradient id="paint0_linear_1_405" x1="-3.10396" y1="-13.4072" x2="162.415" y2="174.025" gradientUnits="userSpaceOnUse">
<stop stop-color="#C3C6D0"/>
<stop offset="1" stop-color="#C3C6D0" stop-opacity="0"/>
</linearGradient>
<linearGradient id="paint1_linear_1_405" x1="-3.10396" y1="-13.4072" x2="162.415" y2="174.025" gradientUnits="userSpaceOnUse">
<stop stop-color="#C3C6D0"/>
<stop offset="1" stop-color="#C3C6D0" stop-opacity="0"/>
</linearGradient>
<linearGradient id="paint2_linear_1_405" x1="-3.10396" y1="-13.4072" x2="162.415" y2="174.025" gradientUnits="userSpaceOnUse">
<stop stop-color="#C3C6D0"/>
<stop offset="1" stop-color="#C3C6D0" stop-opacity="0"/>
</linearGradient>
<linearGradient id="paint3_linear_1_405" x1="-3.10396" y1="-13.4072" x2="162.415" y2="174.025" gradientUnits="userSpaceOnUse">
<stop stop-color="#C3C6D0"/>
<stop offset="1" stop-color="#C3C6D0" stop-opacity="0"/>
</linearGradient>
<linearGradient id="paint4_linear_1_405" x1="-3.10396" y1="-13.4072" x2="162.415" y2="174.025" gradientUnits="userSpaceOnUse">
<stop stop-color="#C3C6D0"/>
<stop offset="1" stop-color="#C3C6D0" stop-opacity="0"/>
</linearGradient>
<linearGradient id="paint5_linear_1_405" x1="-3.10396" y1="-13.4072" x2="162.415" y2="174.025" gradientUnits="userSpaceOnUse">
<stop stop-color="#C3C6D0"/>
<stop offset="1" stop-color="#C3C6D0" stop-opacity="0"/>
</linearGradient>
<linearGradient id="paint6_linear_1_405" x1="-3.10396" y1="-13.4072" x2="162.415" y2="174.025" gradientUnits="userSpaceOnUse">
<stop stop-color="#C3C6D0"/>
<stop offset="1" stop-color="#C3C6D0" stop-opacity="0"/>
</linearGradient>
<linearGradient id="paint7_linear_1_405" x1="-3.10396" y1="-13.4072" x2="162.415" y2="174.025" gradientUnits="userSpaceOnUse">
<stop stop-color="#C3C6D0"/>
<stop offset="1" stop-color="#C3C6D0" stop-opacity="0"/>
</linearGradient>
<linearGradient id="paint8_linear_1_405" x1="-3.10396" y1="-13.4072" x2="162.415" y2="174.025" gradientUnits="userSpaceOnUse">
<stop stop-color="#C3C6D0"/>
<stop offset="1" stop-color="#C3C6D0" stop-opacity="0"/>
</linearGradient>
<linearGradient id="paint9_linear_1_405" x1="-3.10396" y1="-13.4072" x2="162.415" y2="174.025" gradientUnits="userSpaceOnUse">
<stop stop-color="#C3C6D0"/>
<stop offset="1" stop-color="#C3C6D0" stop-opacity="0"/>
</linearGradient>
<linearGradient id="paint10_linear_1_405" x1="-3.10396" y1="-13.4072" x2="162.415" y2="174.025" gradientUnits="userSpaceOnUse">
<stop stop-color="#C3C6D0"/>
<stop offset="1" stop-color="#C3C6D0" stop-opacity="0"/>
</linearGradient>
<linearGradient id="paint11_linear_1_405" x1="-3.10396" y1="-13.4072" x2="162.415" y2="174.025" gradientUnits="userSpaceOnUse">
<stop stop-color="#C3C6D0"/>
<stop offset="1" stop-color="#C3C6D0" stop-opacity="0"/>
</linearGradient>
<linearGradient id="paint12_linear_1_405" x1="-3.10396" y1="-13.4072" x2="162.415" y2="174.025" gradientUnits="userSpaceOnUse">
<stop stop-color="#C3C6D0"/>
<stop offset="1" stop-color="#C3C6D0" stop-opacity="0"/>
</linearGradient>
<linearGradient id="paint13_linear_1_405" x1="-3.10396" y1="-13.4072" x2="162.415" y2="174.025" gradientUnits="userSpaceOnUse">
<stop stop-color="#C3C6D0"/>
<stop offset="1" stop-color="#C3C6D0" stop-opacity="0"/>
</linearGradient>
<linearGradient id="paint14_linear_1_405" x1="-3.10396" y1="-13.4072" x2="162.415" y2="174.025" gradientUnits="userSpaceOnUse">
<stop stop-color="#C3C6D0"/>
<stop offset="1" stop-color="#C3C6D0" stop-opacity="0"/>
</linearGradient>
<linearGradient id="paint15_linear_1_405" x1="-3.10396" y1="-13.4072" x2="162.415" y2="174.025" gradientUnits="userSpaceOnUse">
<stop stop-color="#C3C6D0"/>
<stop offset="1" stop-color="#C3C6D0" stop-opacity="0"/>
</linearGradient>
<linearGradient id="paint16_linear_1_405" x1="-3.10396" y1="-13.4072" x2="162.415" y2="174.025" gradientUnits="userSpaceOnUse">
<stop stop-color="#C3C6D0"/>
<stop offset="1" stop-color="#C3C6D0" stop-opacity="0"/>
</linearGradient>
<linearGradient id="paint17_linear_1_405" x1="-3.10396" y1="-13.4072" x2="162.415" y2="174.025" gradientUnits="userSpaceOnUse">
<stop stop-color="#C3C6D0"/>
<stop offset="1" stop-color="#C3C6D0" stop-opacity="0"/>
</linearGradient>
<linearGradient id="paint18_linear_1_405" x1="-3.10396" y1="-13.4072" x2="162.415" y2="174.025" gradientUnits="userSpaceOnUse">
<stop stop-color="#C3C6D0"/>
<stop offset="1" stop-color="#C3C6D0" stop-opacity="0"/>
</linearGradient>
<linearGradient id="paint19_linear_1_405" x1="-3.10396" y1="-13.4072" x2="162.415" y2="174.025" gradientUnits="userSpaceOnUse">
<stop stop-color="#C3C6D0"/>
<stop offset="1" stop-color="#C3C6D0" stop-opacity="0"/>
</linearGradient>
<linearGradient id="paint20_linear_1_405" x1="-3.10396" y1="-13.4072" x2="162.415" y2="174.025" gradientUnits="userSpaceOnUse">
<stop stop-color="#C3C6D0"/>
<stop offset="1" stop-color="#C3C6D0" stop-opacity="0"/>
</linearGradient>
<linearGradient id="paint21_linear_1_405" x1="-3.10396" y1="-13.4072" x2="162.415" y2="174.025" gradientUnits="userSpaceOnUse">
<stop stop-color="#C3C6D0"/>
<stop offset="1" stop-color="#C3C6D0" stop-opacity="0"/>
</linearGradient>
<linearGradient id="paint22_linear_1_405" x1="-3.10396" y1="-13.4072" x2="162.415" y2="174.025" gradientUnits="userSpaceOnUse">
<stop stop-color="#C3C6D0"/>
<stop offset="1" stop-color="#C3C6D0" stop-opacity="0"/>
</linearGradient>
<linearGradient id="paint23_linear_1_405" x1="-3.10396" y1="-13.4072" x2="162.415" y2="174.025" gradientUnits="userSpaceOnUse">
<stop stop-color="#C3C6D0"/>
<stop offset="1" stop-color="#C3C6D0" stop-opacity="0"/>
</linearGradient>
<linearGradient id="paint24_linear_1_405" x1="-3.10396" y1="-13.4072" x2="162.415" y2="174.025" gradientUnits="userSpaceOnUse">
<stop stop-color="#C3C6D0"/>
<stop offset="1" stop-color="#C3C6D0" stop-opacity="0"/>
</linearGradient>
<linearGradient id="paint25_linear_1_405" x1="-3.10396" y1="-13.4072" x2="162.415" y2="174.025" gradientUnits="userSpaceOnUse">
<stop stop-color="#C3C6D0"/>
<stop offset="1" stop-color="#C3C6D0" stop-opacity="0"/>
</linearGradient>
<linearGradient id="paint26_linear_1_405" x1="-3.10396" y1="-13.4072" x2="162.415" y2="174.025" gradientUnits="userSpaceOnUse">
<stop stop-color="#C3C6D0"/>
<stop offset="1" stop-color="#C3C6D0" stop-opacity="0"/>
</linearGradient>
<linearGradient id="paint27_linear_1_405" x1="-3.10396" y1="-13.4072" x2="162.415" y2="174.025" gradientUnits="userSpaceOnUse">
<stop stop-color="#C3C6D0"/>
<stop offset="1" stop-color="#C3C6D0" stop-opacity="0"/>
</linearGradient>
<linearGradient id="paint28_linear_1_405" x1="-3.10396" y1="-13.4072" x2="162.415" y2="174.025" gradientUnits="userSpaceOnUse">
<stop stop-color="#C3C6D0"/>
<stop offset="1" stop-color="#C3C6D0" stop-opacity="0"/>
</linearGradient>
<linearGradient id="paint29_linear_1_405" x1="-3.10396" y1="-13.4072" x2="162.415" y2="174.025" gradientUnits="userSpaceOnUse">
<stop stop-color="#C3C6D0"/>
<stop offset="1" stop-color="#C3C6D0" stop-opacity="0"/>
</linearGradient>
<linearGradient id="paint30_linear_1_405" x1="-3.10396" y1="-13.4072" x2="162.415" y2="174.025" gradientUnits="userSpaceOnUse">
<stop stop-color="#C3C6D0"/>
<stop offset="1" stop-color="#C3C6D0" stop-opacity="0"/>
</linearGradient>
<linearGradient id="paint31_linear_1_405" x1="-3.10396" y1="-13.4072" x2="162.415" y2="174.025" gradientUnits="userSpaceOnUse">
<stop stop-color="#C3C6D0"/>
<stop offset="1" stop-color="#C3C6D0" stop-opacity="0"/>
</linearGradient>
<linearGradient id="paint32_linear_1_405" x1="-3.10396" y1="-13.4072" x2="162.415" y2="174.025" gradientUnits="userSpaceOnUse">
<stop stop-color="#C3C6D0"/>
<stop offset="1" stop-color="#C3C6D0" stop-opacity="0"/>
</linearGradient>
<linearGradient id="paint33_linear_1_405" x1="-3.10396" y1="-13.4072" x2="162.415" y2="174.025" gradientUnits="userSpaceOnUse">
<stop stop-color="#C3C6D0"/>
<stop offset="1" stop-color="#C3C6D0" stop-opacity="0"/>
</linearGradient>
<linearGradient id="paint34_linear_1_405" x1="-3.10396" y1="-13.4072" x2="162.415" y2="174.025" gradientUnits="userSpaceOnUse">
<stop stop-color="#C3C6D0"/>
<stop offset="1" stop-color="#C3C6D0" stop-opacity="0"/>
</linearGradient>
<linearGradient id="paint35_linear_1_405" x1="-3.10396" y1="-13.4072" x2="162.415" y2="174.025" gradientUnits="userSpaceOnUse">
<stop stop-color="#C3C6D0"/>
<stop offset="1" stop-color="#C3C6D0" stop-opacity="0"/>
</linearGradient>
<linearGradient id="paint36_linear_1_405" x1="-3.10396" y1="-13.4072" x2="162.415" y2="174.025" gradientUnits="userSpaceOnUse">
<stop stop-color="#C3C6D0"/>
<stop offset="1" stop-color="#C3C6D0" stop-opacity="0"/>
</linearGradient>
<linearGradient id="paint37_linear_1_405" x1="-3.10396" y1="-13.4072" x2="162.415" y2="174.025" gradientUnits="userSpaceOnUse">
<stop stop-color="#C3C6D0"/>
<stop offset="1" stop-color="#C3C6D0" stop-opacity="0"/>
</linearGradient>
<linearGradient id="paint38_linear_1_405" x1="-3.10396" y1="-13.4072" x2="162.415" y2="174.025" gradientUnits="userSpaceOnUse">
<stop stop-color="#C3C6D0"/>
<stop offset="1" stop-color="#C3C6D0" stop-opacity="0"/>
</linearGradient>
<linearGradient id="paint39_linear_1_405" x1="-3.10396" y1="-13.4072" x2="162.415" y2="174.025" gradientUnits="userSpaceOnUse">
<stop stop-color="#C3C6D0"/>
<stop offset="1" stop-color="#C3C6D0" stop-opacity="0"/>
</linearGradient>
<linearGradient id="paint40_linear_1_405" x1="-3.10396" y1="-13.4072" x2="162.415" y2="174.025" gradientUnits="userSpaceOnUse">
<stop stop-color="#C3C6D0"/>
<stop offset="1" stop-color="#C3C6D0" stop-opacity="0"/>
</linearGradient>
<linearGradient id="paint41_linear_1_405" x1="-3.10396" y1="-13.4072" x2="162.415" y2="174.025" gradientUnits="userSpaceOnUse">
<stop stop-color="#C3C6D0"/>
<stop offset="1" stop-color="#C3C6D0" stop-opacity="0"/>
</linearGradient>
<linearGradient id="paint42_linear_1_405" x1="-3.10396" y1="-13.4072" x2="162.415" y2="174.025" gradientUnits="userSpaceOnUse">
<stop stop-color="#C3C6D0"/>
<stop offset="1" stop-color="#C3C6D0" stop-opacity="0"/>
</linearGradient>
<linearGradient id="paint43_linear_1_405" x1="-3.10396" y1="-13.4072" x2="162.415" y2="174.025" gradientUnits="userSpaceOnUse">
<stop stop-color="#C3C6D0"/>
<stop offset="1" stop-color="#C3C6D0" stop-opacity="0"/>
</linearGradient>
<linearGradient id="paint44_linear_1_405" x1="-3.10396" y1="-13.4072" x2="162.415" y2="174.025" gradientUnits="userSpaceOnUse">
<stop stop-color="#C3C6D0"/>
<stop offset="1" stop-color="#C3C6D0" stop-opacity="0"/>
</linearGradient>
<linearGradient id="paint45_linear_1_405" x1="-3.10396" y1="-13.4072" x2="162.415" y2="174.025" gradientUnits="userSpaceOnUse">
<stop stop-color="#C3C6D0"/>
<stop offset="1" stop-color="#C3C6D0" stop-opacity="0"/>
</linearGradient>
<linearGradient id="paint46_linear_1_405" x1="-3.10396" y1="-13.4072" x2="162.415" y2="174.025" gradientUnits="userSpaceOnUse">
<stop stop-color="#C3C6D0"/>
<stop offset="1" stop-color="#C3C6D0" stop-opacity="0"/>
</linearGradient>
<linearGradient id="paint47_linear_1_405" x1="-3.10396" y1="-13.4072" x2="162.415" y2="174.025" gradientUnits="userSpaceOnUse">
<stop stop-color="#C3C6D0"/>
<stop offset="1" stop-color="#C3C6D0" stop-opacity="0"/>
</linearGradient>
<linearGradient id="paint48_linear_1_405" x1="-3.10396" y1="-13.4072" x2="162.415" y2="174.025" gradientUnits="userSpaceOnUse">
<stop stop-color="#C3C6D0"/>
<stop offset="1" stop-color="#C3C6D0" stop-opacity="0"/>
</linearGradient>
</defs>
</svg>
